<?xml version="1.0" encoding="UTF-8"?>
<svg width="512" height="512" viewBox="0 0 24 24" fill="none" xmlns="http://www.w3.org/2000/svg">
  <path d="M12 22C17.5228 22 22 17.5228 22 12C22 6.47715 17.5228 2 12 2C6.47715 2 2 6.47715 2 12C2 17.5228 6.47715 22 12 22Z" stroke="#4F46E5" stroke-width="2"/>
  <path d="M12 2V22M12 2C14.5 2 17 6.47715 17 12C17 17.5228 14.5 22 12 22M12 2C9.5 2 7 6.47715 7 12C7 17.5228 9.5 22 12 22M2 12H22" stroke="#4F46E5" stroke-width="2"/>
  <path d="M3.5 7.5H20.5M3.5 16.5H20.5" stroke="#4F46E5" stroke-width="2"/>
</svg>